<mxfile host="app.diagrams.net" modified="2023-05-15T17:03:55.715Z" agent="Mozilla/5.0 (X11; Ubuntu; Linux x86_64; rv:109.0) Gecko/20100101 Firefox/112.0" version="21.3.0" etag="uo2zrzMDjspIbPeqd4UH" type="github">
  <diagram name="Page-1" id="xPYHQfnh46mK-k9WcB2l">
    <mxGraphModel>
      <root>
        <mxCell id="0" />
        <mxCell id="1" parent="0" />
      </root>
    </mxGraphModel>
  </diagram>
</mxfile>
